<?xml version="1.0" encoding="utf-8"?>
<!-- Generator: Adobe Illustrator 19.1.0, SVG Export Plug-In . SVG Version: 6.00 Build 0)  -->
<svg version="1.1" id="レイヤー_1" xmlns="http://www.w3.org/2000/svg" xmlns:xlink="http://www.w3.org/1999/xlink" x="0px"
	 y="0px" viewBox="0 0 205 407.3" style="enable-background:new 0 0 205 407.3;" xml:space="preserve">
<style type="text/css">
	.st0{fill:#FFFFFF;stroke:#C8473D;stroke-width:5;stroke-miterlimit:10;}
	.st1{fill:#FFFFFF;stroke:#C8473D;stroke-miterlimit:10;}
	.st2{fill:#C8473D;}
	.st3{font-family:'Klee-Demibold-83pv-RKSJ-H';}
	.st4{font-size:72px;}
	.st5{font-size:36px;}
</style>
<rect x="2.5" y="2.5" class="st0" width="200" height="402.3"/>
<rect x="14.3" y="14.5" class="st1" width="176.5" height="378.3"/>
<text transform="matrix(1 0 0 1 67.2959 197.2396)"><tspan x="0" y="0" class="st2 st3 st4">末</tspan><tspan x="0" y="72" class="st2 st3 st4">吉</tspan></text>
<text transform="matrix(1 0 0 1 30.4999 59.3465)" class="st2 st3 st5">第弐十番</text>
<g>
	<path class="st2" d="M39.4,134.6l-1.5,3.8l-2.6-3.2c-1.3,1.5-1.9,4.4-1.4,7.5c0.7,4.4,5.8,7.3,5.8,7.3s3.9-4.3,3.3-8.7
		C42.6,138.2,41.1,135.7,39.4,134.6z"/>
	<path class="st2" d="M24.1,146.7l3.2,2.6l-3.8,1.5c1.1,1.7,3.6,3.1,6.7,3.6c4.4,0.7,8.7-3.2,8.7-3.2s-2.9-5.1-7.3-5.8
		C28.5,144.8,25.6,145.4,24.1,146.7z"/>
	<path class="st2" d="M30.9,164.8l3.4-2.2l0.2,4.1c1.9-0.5,4.1-2.5,5.5-5.3c2-4-0.4-9.3-0.4-9.3s-5.7,1.1-7.7,5.1
		C30.5,160.1,30.1,163,30.9,164.8z"/>
	<path class="st2" d="M50.3,164.2l-1-3.9l3.9,1.1c0.1-2-1.1-4.7-3.3-6.9c-3.2-3.2-8.9-2.5-8.9-2.5s-0.7,5.8,2.5,9
		C45.6,163.1,48.3,164.3,50.3,164.2z"/>
	<path class="st2" d="M55.8,145.6l-4.1-0.2l2.2-3.4c-1.9-0.7-4.8-0.4-7.6,1c-4,2-5.1,7.7-5.1,7.7s5.3,2.4,9.3,0.4
		C53.3,149.7,55.3,147.5,55.8,145.6z"/>
</g>
<g>
	<path class="st2" d="M169.8,238.2l-3.2,2.7l-0.7-4.1c-1.9,0.7-3.9,3-5,6c-1.6,4.3,1.5,9.4,1.5,9.4s5.7-1.9,7.2-6.1
		C170.8,243,170.8,240,169.8,238.2z"/>
	<path class="st2" d="M150.1,241.3l1.5,3.9l-4.1-0.6c0.1,2,1.7,4.6,4.2,6.6c3.6,2.8,9.4,1.5,9.4,1.5s0-5.9-3.6-8.8
		C155,241.8,152.1,240.9,150.1,241.3z"/>
	<path class="st2" d="M147.1,260.9l4.2-0.3l-1.8,3.7c2,0.5,4.9-0.2,7.6-2c3.8-2.5,4.3-8.5,4.3-8.5s-5.7-1.8-9.5,0.7
		C149.2,256.4,147.4,258.9,147.1,260.9z"/>
	<path class="st2" d="M164.8,270l1-4l3,2.9c1.1-1.7,1.4-4.7,0.5-7.8c-1.2-4.4-6.7-6.7-6.7-6.7s-3.5,4.8-2.2,9.2
		C161.2,266.7,162.9,269.1,164.8,270z"/>
	<path class="st2" d="M178.9,256.1l-3.5-2.2l3.7-1.9c-1.3-1.6-4.1-2.7-7.3-2.9c-4.6-0.2-8.4,4.3-8.4,4.3s3.5,4.8,8.1,5
		C174.7,258.5,177.5,257.6,178.9,256.1z"/>
</g>
<g>
	<path class="st2" d="M59.9,328.2l-3.2,2.7l-0.7-4.1c-1.9,0.7-3.9,3-5,6c-1.6,4.3,1.5,9.4,1.5,9.4s5.7-1.9,7.2-6.1
		C60.9,333,60.9,330,59.9,328.2z"/>
	<path class="st2" d="M40.2,331.3l1.5,3.9l-4.1-0.6c0.1,2,1.7,4.6,4.2,6.6c3.6,2.8,9.4,1.5,9.4,1.5s0-5.9-3.6-8.8
		C45.1,331.8,42.2,330.9,40.2,331.3z"/>
	<path class="st2" d="M37.2,350.9l4.2-0.3l-1.8,3.7c2,0.5,4.9-0.2,7.6-2c3.8-2.5,4.3-8.5,4.3-8.5s-5.7-1.8-9.5,0.7
		C39.2,346.4,37.5,348.9,37.2,350.9z"/>
	<path class="st2" d="M54.9,360l1-4l3,2.9c1.1-1.7,1.4-4.7,0.5-7.8c-1.2-4.4-6.7-6.7-6.7-6.7s-3.5,4.8-2.2,9.2
		C51.3,356.7,53,359.1,54.9,360z"/>
	<path class="st2" d="M69,346.1l-3.5-2.2l3.7-1.9c-1.3-1.6-4.1-2.7-7.3-2.9c-4.6-0.2-8.4,4.3-8.4,4.3s3.5,4.8,8.1,5
		C64.8,348.5,67.6,347.6,69,346.1z"/>
</g>
</svg>
